<svg viewBox="0 0 220 120" fill="none" xmlns="http://www.w3.org/2000/svg">
  <defs>
    <linearGradient id="sf" x1="110" y1="12" x2="110" y2="100" gradientUnits="userSpaceOnUse">
      <stop stop-color="#FFF8E1"/>
      <stop offset="0.3" stop-color="#F5E6BE"/>
      <stop offset="0.7" stop-color="#E8D5A0"/>
      <stop offset="1" stop-color="#D4B070"/>
    </linearGradient>
    <linearGradient id="rg" x1="0" y1="8" x2="0" y2="104" gradientUnits="userSpaceOnUse">
      <stop stop-color="#8B6914"/>
      <stop offset="0.5" stop-color="#6D4C11"/>
      <stop offset="1" stop-color="#4A3208"/>
    </linearGradient>
    <linearGradient id="ag" x1="110" y1="38" x2="110" y2="80" gradientUnits="userSpaceOnUse">
      <stop stop-color="#FFE066"/>
      <stop offset="0.4" stop-color="#FFD700"/>
      <stop offset="0.7" stop-color="#FFA500"/>
      <stop offset="1" stop-color="#FF6B00"/>
    </linearGradient>
  </defs>
  <!-- Scroll Body -->
  <rect x="38" y="12" width="144" height="88" rx="6" fill="url(#sf)" stroke="#B8860B" stroke-width="2"/>
  <!-- Scroll Rollers -->
  <rect x="24" y="8" width="18" height="96" rx="6" fill="url(#rg)" stroke="#5D3A1A" stroke-width="1.5"/>
  <rect x="178" y="8" width="18" height="96" rx="6" fill="url(#rg)" stroke="#5D3A1A" stroke-width="1.5"/>
  <!-- Roller caps -->
  <circle cx="33" cy="14" r="4" fill="#8B6914" opacity="0.6"/>
  <circle cx="33" cy="98" r="4" fill="#8B6914" opacity="0.6"/>
  <circle cx="187" cy="14" r="4" fill="#8B6914" opacity="0.6"/>
  <circle cx="187" cy="98" r="4" fill="#8B6914" opacity="0.6"/>
  <!-- Anvil top -->
  <path d="M80 44C80 41.79 81.79 40 84 40H136C138.21 40 140 41.79 140 44V50H80V44Z" fill="url(#ag)" stroke="#FFD700" stroke-width="1"/>
  <!-- Anvil body -->
  <path d="M88 50H132L124 68H96L88 50Z" fill="url(#ag)" stroke="#FFD700" stroke-width="0.8"/>
  <!-- Anvil base -->
  <path d="M84 68H136V74C136 76.21 134.21 78 132 78H88C85.79 78 84 76.21 84 74V68Z" fill="url(#ag)" stroke="#FFD700" stroke-width="1"/>
  <!-- Qi particles -->
  <circle cx="72" cy="36" r="2" fill="#FFD700" opacity="0.6"/>
  <circle cx="148" cy="36" r="1.8" fill="#00E5FF" opacity="0.6"/>
  <circle cx="110" cy="30" r="2.5" fill="#FFD700" opacity="0.7"/>
  <circle cx="66" cy="58" r="1.5" fill="#00E5FF" opacity="0.5"/>
  <circle cx="154" cy="58" r="1.5" fill="#FFD700" opacity="0.5"/>
</svg>
